<?xml version="1.0" encoding="UTF-8" standalone="no"?>
<!DOCTYPE svg PUBLIC "-//W3C//DTD SVG 1.1//EN" "http://www.w3.org/Graphics/SVG/1.1/DTD/svg11.dtd">
<svg width="100%" height="100%" viewBox="0 0 500 500" version="1.1" xmlns="http://www.w3.org/2000/svg" xmlns:xlink="http://www.w3.org/1999/xlink" xml:space="preserve" xmlns:serif="http://www.serif.com/" style="fill-rule:evenodd;clip-rule:evenodd;stroke-linejoin:round;stroke-miterlimit:2;">
    <g transform="matrix(1.02907,-0,-0,1.053295,-7.267514,49.20375)">
        <rect x="82" y="112.364" width="336" height="37.818" style="fill:rgb(42,6,122);"/>
    </g>
    <g transform="matrix(1.02907,-0,-0,2.106589,-2.77701,-108.981942)">
        <ellipse cx="77.636" cy="140.727" rx="19.636" ry="9.455" style="fill:rgb(42,6,122);"/>
    </g>
    <g transform="matrix(1.02907,-0,-0,2.106589,342.990507,-108.981942)">
        <ellipse cx="77.636" cy="140.727" rx="19.636" ry="9.455" style="fill:rgb(42,6,122);"/>
    </g>
    <g transform="matrix(1.02907,-0,-0,1.053295,-7.267514,174.258542)">
        <rect x="82" y="112.364" width="336" height="37.818" style="fill:rgb(250,71,122);"/>
    </g>
    <g transform="matrix(1.02907,-0,-0,2.106589,-2.77701,16.07285)">
        <ellipse cx="77.636" cy="140.727" rx="19.636" ry="9.455" style="fill:rgb(250,71,122);"/>
    </g>
    <g transform="matrix(1.02907,-0,-0,2.106589,342.990507,16.07285)">
        <ellipse cx="77.636" cy="140.727" rx="19.636" ry="9.455" style="fill:rgb(250,71,122);"/>
    </g>
    <g transform="matrix(0,-1.053295,1.02907,0,53.821826,513.323645)">
        <rect x="82" y="112.364" width="336" height="37.818" style="fill:rgb(42,6,122);"/>
    </g>
    <g transform="matrix(0,-1.053295,2.05814,0,-100.725784,508.727433)">
        <ellipse cx="77.636" cy="140.727" rx="19.636" ry="9.455" style="fill:rgb(42,6,122);"/>
    </g>
    <g transform="matrix(0,-1.053295,2.05814,0,-100.725784,154.820477)">
        <ellipse cx="77.636" cy="140.727" rx="19.636" ry="9.455" style="fill:rgb(42,6,122);"/>
    </g>
    <g transform="matrix(0,-1.053295,1.02907,0,176.000506,513.323645)">
        <rect x="82" y="112.364" width="336" height="37.818" style="fill:rgb(250,71,122);"/>
    </g>
    <g transform="matrix(0,-1.053295,2.05814,0,21.452896,508.727433)">
        <ellipse cx="77.636" cy="140.727" rx="19.636" ry="9.455" style="fill:rgb(250,71,122);"/>
    </g>
    <g transform="matrix(0,-1.053295,2.05814,0,21.452896,154.820477)">
        <ellipse cx="77.636" cy="140.727" rx="19.636" ry="9.455" style="fill:rgb(250,71,122);"/>
    </g>
</svg>
